<svg height="512" viewBox="0 0 64 64" width="512" xmlns="http://www.w3.org/2000/svg" xmlns:xlink="http://www.w3.org/1999/xlink"><linearGradient id="linear-gradient" gradientUnits="userSpaceOnUse" x1="8.53" x2="15.47" y1="17.97" y2="11.03"><stop offset="0" stop-color="#39a9fd"/><stop offset="1" stop-color="#adf2f2"/></linearGradient><linearGradient id="linear-gradient-2" x1="48.53" x2="55.47" xlink:href="#linear-gradient" y1="17.97" y2="11.03"/><linearGradient id="linear-gradient-3" x1="25.53" x2="28.47" xlink:href="#linear-gradient" y1="17.97" y2="15.03"/><linearGradient id="linear-gradient-4" x1="35.53" x2="38.47" xlink:href="#linear-gradient" y1="17.97" y2="15.03"/><linearGradient id="linear-gradient-5" x1="16.47" x2="47.56" xlink:href="#linear-gradient" y1="41.58" y2="10.5"/><linearGradient id="linear-gradient-6" gradientUnits="userSpaceOnUse" x1="13.97" x2="50.01" y1="50.06" y2="14.01"><stop offset="0" stop-color="#000354"/><stop offset="1" stop-color="#048ad3"/></linearGradient><linearGradient id="linear-gradient-7" x1="14.23" x2="49.76" xlink:href="#linear-gradient-6" y1="60.3" y2="24.76"/><linearGradient id="linear-gradient-8" gradientUnits="userSpaceOnUse" x1="27.69" x2="36.31" y1="56.53" y2="47.9"><stop offset="0" stop-color="#ff9d32"/><stop offset="1" stop-color="#fdf5ad"/></linearGradient><linearGradient id="linear-gradient-9" x1="26.79" x2="37.21" xlink:href="#linear-gradient-6" y1="17.21" y2="6.79"/><linearGradient id="linear-gradient-10" x1="6.75" x2="12.75" xlink:href="#linear-gradient-6" y1="15.75" y2="9.75"/><linearGradient id="linear-gradient-11" x1="52.5" x2="56" xlink:href="#linear-gradient-6" y1="14.5" y2="11"/><linearGradient id="linear-gradient-12" x1="29.53" x2="34.47" xlink:href="#linear-gradient-6" y1="27.97" y2="23.03"/><linearGradient id="linear-gradient-13" gradientTransform="matrix(-1 0 0 -1 33.7 53.7)" x1="13.29" x2="20.4" xlink:href="#linear-gradient-6" y1="23.3" y2="30.41"/><linearGradient id="linear-gradient-14" x1="43.6" x2="50.71" xlink:href="#linear-gradient-6" y1="30.41" y2="23.3"/><linearGradient id="linear-gradient-15" x1="30.53" x2="33.47" xlink:href="#linear-gradient" y1="41.47" y2="38.53"/><linearGradient id="linear-gradient-16" x1="40.53" x2="43.47" xlink:href="#linear-gradient" y1="40.97" y2="38.03"/><linearGradient id="linear-gradient-17" x1="20.53" x2="23.47" xlink:href="#linear-gradient" y1="40.97" y2="38.03"/><linearGradient id="linear-gradient-18" x1="11.53" x2="14.47" xlink:href="#linear-gradient" y1="38.97" y2="36.03"/><linearGradient id="linear-gradient-19" x1="4.53" x2="7.47" xlink:href="#linear-gradient" y1="36.97" y2="34.03"/><linearGradient id="linear-gradient-20" x1="49.53" x2="52.47" xlink:href="#linear-gradient" y1="38.97" y2="36.03"/><linearGradient id="linear-gradient-21" x1="56.53" x2="59.47" xlink:href="#linear-gradient" y1="36.97" y2="34.03"/><linearGradient id="linear-gradient-22" x1="21.11" x2="42.89" xlink:href="#linear-gradient-8" y1="42.39" y2="20.61"/><g id="stadium"><path d="m11 20v-11a1 1 0 0 1 2 0v11a1 1 0 0 1 -2 0z" fill="url(#linear-gradient)"/><path d="m51 20v-11a1 1 0 0 1 2 0v11a1 1 0 0 1 -2 0z" fill="url(#linear-gradient-2)"/><path d="m26 18v-3a1 1 0 0 1 2 0v3a1 1 0 0 1 -2 0z" fill="url(#linear-gradient-3)"/><path d="m36 18v-3a1 1 0 0 1 2 0v3a1 1 0 0 1 -2 0z" fill="url(#linear-gradient-4)"/><path d="m62 26c0 7.2-33.25 10.73-51.78 5.5-17.98-5.05-4.56-13.5 21.78-13.5 16.57 0 30 3.58 30 8z" fill="url(#linear-gradient-5)"/><path d="m62 26v11c0 1.89-2.46 3.63-6.58 5-17.81 5.94-53.42 2.43-53.42-5v-11c0 2.13 3.13 4.07 8.22 5.5 18.56 5.23 51.78 1.69 51.78-5.5z" fill="url(#linear-gradient-6)"/><path d="m62 37v10c0 3.87-10.3 7.1-24 7.84-18.31.94-36-2.67-36-7.84v-10c0 1.89 2.46 3.63 6.58 5 17.81 5.94 53.42 2.43 53.42-5z" fill="url(#linear-gradient-7)"/><path d="m38 50v4.84a114.36 114.36 0 0 1 -12 0v-4.84a1 1 0 0 1 1-1h10a1 1 0 0 1 1 1z" fill="url(#linear-gradient-8)"/><rect fill="url(#linear-gradient-9)" height="6" rx="1" width="16" x="24" y="9"/><path d="m12 14h-7l7-5z" fill="url(#linear-gradient-10)"/><path d="m52 14h7l-7-5z" fill="url(#linear-gradient-11)"/><path d="m31 29v-7a1 1 0 0 1 2 0v7a1 1 0 0 1 -2 0z" fill="url(#linear-gradient-12)"/><path d="m14 23c.59 0 .32-.1 6.41 6a1 1 0 0 1 -1.41 1.41l-5.7-5.7a1 1 0 0 1 .7-1.71z" fill="url(#linear-gradient-13)"/><path d="m44.3 30.7a1 1 0 0 1 -.71-1.7l5.7-5.7a1 1 0 0 1 1.42 1.42c-6.1 6.09-5.83 5.98-6.41 5.98z" fill="url(#linear-gradient-14)"/><path d="m31 41.5v-3a1 1 0 0 1 2 0v3a1 1 0 0 1 -2 0z" fill="url(#linear-gradient-15)"/><path d="m41 41v-3a1 1 0 0 1 2 0v3a1 1 0 0 1 -2 0z" fill="url(#linear-gradient-16)"/><path d="m21 41v-3a1 1 0 0 1 2 0v3a1 1 0 0 1 -2 0z" fill="url(#linear-gradient-17)"/><path d="m12 39v-3a1 1 0 0 1 2 0v3a1 1 0 0 1 -2 0z" fill="url(#linear-gradient-18)"/><path d="m5 37v-3a1 1 0 0 1 2 0v3a1 1 0 0 1 -2 0z" fill="url(#linear-gradient-19)"/><path d="m50 39v-3a1 1 0 0 1 2 0v3a1 1 0 0 1 -2 0z" fill="url(#linear-gradient-20)"/><path d="m57 37v-3a1 1 0 0 1 2 0v3a1 1 0 0 1 -2 0z" fill="url(#linear-gradient-21)"/><path d="m53.78 31.5c-11.78 3.33-31.78 3.33-43.56 0 11.78-3.33 31.78-3.33 43.56 0z" fill="url(#linear-gradient-22)"/></g></svg>